<?xml version="1.0" encoding="UTF-8"?><svg id="Layer_1" xmlns="http://www.w3.org/2000/svg" viewBox="0 0 1237.23 437.1"><defs><style>.cls-1{fill:#821b2a;}</style></defs><path class="cls-1" d="M923.28,353.4c-5.29-.66-10.35-2.53-15.18-5.61-4.83-3.08-8.57-7.8-11.21-14.16,.25,.58,2,1.68,5.27,3.31,3.26,1.63,7.17,2.74,11.71,3.31,1.69,.25,6.86,.53,15.49,.84,8.63,.31,15.05,1.46,19.27,3.44,4.13,2.02,7.83,7.1,11.09,15.24-3.02-2.73-11.11-4.65-24.29-5.76h-1.86c-.99,3.35-1.49,7.25-1.49,11.71,0,1.2,.04,2.44,.12,3.72l.68,7.99,.25,.87v.19c.74-.04,1.49-.06,2.23-.06,6.4,0,12.37,1.92,17.9,5.76l-12.33,6.44c-2.02-2.77-4.36-4.46-7-5.08,.29,2.56,.43,4.96,.43,7.19,0,8.51-1.98,14.79-5.95,18.83-5.04,5.12-9.6,7.99-13.69,8.61,1.32-.37,2.58-1.34,3.78-2.91,1.03-1.32,1.8-2.95,2.29-4.89,.37-1.53,.56-3.2,.56-5.02,0-1.03-.06-2.13-.19-3.28l-2.97-18.46h-.68c-2.44,0-6.2,.39-11.28,1.18,4.46-2.6,8.22-4.5,11.28-5.7-.5-2.44-.74-4.83-.74-7.19,0-1.12,.06-2.21,.19-3.28,.66-6.4,2.77-12.14,6.32-17.22Z"/><path class="cls-1" d="M989.7,401.79c0,.99,.25,1.94,.74,2.85,.37,.74,.87,1.47,1.49,2.17,.78,.78,1.55,1.4,2.29,1.86l-9.23,6.81c-1.53-.87-2.83-2.19-3.9-3.96-.78-1.32-1.45-2.85-1.98-4.58l-11.52,8.55c-5.58-2.19-8.8-5.8-9.66-10.84h-.06c-.17-.83-.27-1.77-.31-2.85h.06v-21.19c0-2.19,1.16-4.52,3.47-7,1.82-1.98,4.36-3.99,7.62-6.01,3.72-2.35,7.41-4.3,11.09-5.82,3.63,1.4,6.28,3.45,7.93,6.13,1.32,2.15,1.98,4.61,1.98,7.37v26.52Zm-11.21-26.64c0-1.77-1.2-3.35-3.59-4.71-3.96,2.93-5.95,6.07-5.95,9.42v22.24c0,1.78,1.2,3.35,3.59,4.71l5.89-4.34,.06-27.32Z"/><path class="cls-1" d="M1011.5,400.67c0,3.55,1.49,6.22,4.46,7.99l-9.17,6.81-.06-.06h-.06c-4.3-3.22-6.44-7.29-6.44-12.2v-26.45c0-2.35-.74-4.38-2.23-6.07-.74-.87-1.49-1.51-2.23-1.92l9.17-6.81h.06l.19,.12,.25,.12,.37,.19c.29,.21,.6,.41,.93,.62,.37,.29,.72,.58,1.05,.87,.87,.74,1.59,1.57,2.17,2.48,.74,1.12,1.26,2.31,1.55,3.59l10.97-8.18c3.63,1.4,6.28,3.45,7.93,6.13,1.32,2.15,1.98,4.61,1.98,7.37v25.4c0,3.55,1.49,6.22,4.46,7.99l-9.17,6.81-.06-.06h-.06c-4.3-3.22-6.44-7.29-6.44-12.2v-28.06c0-1.73-1.18-3.3-3.53-4.71l-6.07,4.4v25.83Z"/><path class="cls-1" d="M1053.07,367.59v33.08c0,2.35,.74,4.38,2.23,6.07,.74,.87,1.49,1.51,2.23,1.92l-9.17,6.81-.06-.06h-.12l-.12-.06-.31-.19-.43-.25c-.33-.25-.68-.5-1.05-.74-.41-.33-.81-.68-1.18-1.05-.99-.91-1.76-1.92-2.29-3.04-.7-1.36-1.05-2.83-1.05-4.4v-38.1h-4.58l2.48-5.82h2.17c0-2.64-.25-4.52-.74-5.64-.37-.87-.89-1.69-1.55-2.48-.74-.83-1.49-1.45-2.23-1.86l9.23-6.81h.06l.06,.06,.12,.06,.31,.19,.43,.25c.37,.21,.72,.46,1.05,.74,.41,.29,.83,.62,1.24,.99,.95,.95,1.69,1.96,2.23,3.04,.7,1.4,1.05,2.89,1.05,4.46v7h5.27l-2.48,5.82h-2.79Z"/><path class="cls-1" d="M1095.14,401.79c0,.99,.25,1.94,.74,2.85,.37,.74,.87,1.47,1.49,2.17,.78,.78,1.55,1.4,2.29,1.86l-9.23,6.81c-1.53-.87-2.83-2.19-3.9-3.96-.78-1.32-1.45-2.85-1.98-4.58l-11.52,8.55c-5.58-2.19-8.8-5.8-9.66-10.84h-.06c-.17-.83-.27-1.77-.31-2.85h.06v-21.19c0-2.19,1.16-4.52,3.47-7,1.82-1.98,4.36-3.99,7.62-6.01,3.72-2.35,7.41-4.3,11.09-5.82,3.63,1.4,6.28,3.45,7.93,6.13,1.32,2.15,1.98,4.61,1.98,7.37v26.52Zm-11.21-26.64c0-1.77-1.2-3.35-3.59-4.71-3.96,2.93-5.95,6.07-5.95,9.42v22.24c0,1.78,1.2,3.35,3.59,4.71l5.89-4.34,.06-27.32Z"/><path class="cls-1" d="M1122.99,383.6c5.68,3.28,8.77,6.52,9.26,9.7,.33,1.9,.5,3.62,.5,5.14,0,.66-.04,1.3-.12,1.92-.33,2.6-1.26,4.69-2.79,6.26-.25,.21-3.57,2.73-9.97,7.56-1.2,.87-2.52,1.3-3.96,1.3-1.82,0-3.86-.7-6.13-2.11-4.01-2.44-6.17-5.41-6.51-8.92l8.61-6.38c.29,1.03,.78,2.07,1.49,3.1,1.9,2.73,4.13,4.42,6.69,5.08,.45,.12,.87,.19,1.24,.19,1.16,0,2-.5,2.54-1.49,.12-.21,.23-.52,.31-.93l.06-.43v-.43c.04-.25,.06-.5,.06-.74,0-.37-.04-.72-.12-1.05-.74-3.72-3.39-6.72-7.93-9.01s-7.43-3.89-8.67-4.8c-3.14-2.39-4.71-5.18-4.71-8.36v-.68c.21-2.93,1.32-5.37,3.35-7.31l.62-.56,11.96-8.92c.37-.04,.76-.06,1.18-.06,2.52,0,5.04,.91,7.56,2.73,2.85,2.02,4.79,4.42,5.82,7.19l-8.86,6.63c0-.16-.62-1.05-1.86-2.66-1.36-1.65-2.62-2.81-3.78-3.47-.99-.66-2.29-1.07-3.9-1.24h-.25c-.45,0-.81,.08-1.05,.25l-.12,.12c-.87,.66-1.3,1.57-1.3,2.73v.12c.04,.41,.14,.87,.31,1.36,.12,.33,.29,.68,.5,1.05,.99,1.49,4.33,3.87,10.01,7.16Z"/><path class="cls-1" d="M1166.76,361.76l.06,.06h.06l.12,.06,.31,.19,.43,.25c.37,.25,.72,.5,1.05,.74,.45,.33,.87,.68,1.24,1.05,.95,.91,1.71,1.92,2.29,3.04,.7,1.36,1.05,2.83,1.05,4.4v39.03c-.04,6.77-1.34,12.29-3.9,16.54l-.87,1.3c-.37,.62-.76,1.18-1.18,1.67-1.03,1.4-2.13,2.58-3.28,3.53-2.68,2.31-5.62,3.47-8.8,3.47-.62,0-1.24-.04-1.86-.12-3.26-.45-6.03-2.04-8.3-4.77-1.53-1.82-2.29-3.66-2.29-5.51,0-1.2,.33-2.42,.99-3.66,1.07-2.02,2.71-3.06,4.89-3.1,.7,0,1.4,.1,2.11,.31,.25,.04,.47,.1,.68,.19l.19,.12h.06c-1.53,.95-2.37,2.13-2.54,3.53v.43c0,1.07,.41,2.02,1.24,2.85,.95,.91,2.09,1.36,3.41,1.36h.31c1.65-.08,3.22-.89,4.71-2.42,2.07-2.11,3.1-4.61,3.1-7.5v-11.46l-10.97,8.12c-3.59-1.4-6.24-3.45-7.93-6.13-1.32-2.15-1.98-4.61-1.98-7.37v-26.52c0-.99-.23-1.94-.68-2.85-.37-.74-.89-1.46-1.55-2.17-.74-.78-1.49-1.38-2.23-1.8l9.23-6.88c1.28,.78,2.42,1.86,3.41,3.22,.78,1.16,1.45,2.46,1.98,3.9,.62,1.7,1.01,3.74,1.18,6.13l-.06,27.07c0,1.78,1.2,3.37,3.59,4.77l6.01-4.52v-25.77c0-2.31-.74-4.34-2.23-6.07-.74-.87-1.51-1.49-2.29-1.86l9.23-6.88Z"/><g><path d="M395.22,310.53c-12.73-8.69-19.1-19.4-19.1-32.13l-43.34,30.92c-12.73-8.08-19.1-19.8-19.1-35.16v-80.02l-5.46-5.15-6.97,4.24-3.03-3.33,29.1-22.43,23.03,17.88-9.09,7.27v80.62c0,5.86,3.64,10.71,10.91,14.55l24.55-17.58v-76.08l-7.27-9.09,21.52-17.88,22.43,17.88-8.79,7.58v86.38c0,3.24,3.03,6.47,9.09,9.7l5.46-3.64,3.03,3.03-26.98,22.43Z"/><path d="M516.46,309.62c-12.93-6.87-19.4-17.78-19.4-32.73l-41.22,33.04h-1.52c-14.35-13.34-21.52-26.27-21.52-38.8,0-18.59,10-36.87,30.01-54.86l-14.55-37.89,3.94,.3c11.31,1.01,21.72-2.93,31.22-11.82l43.04,14.25,8.49-6.67,.61,1.21c-4.85,7.48-8.29,15.26-10.31,23.34v79.41c1.41,5.05,4.24,8.18,8.49,9.4l5.46-2.73,3.34,2.73-26.07,21.82Zm-19.4-112.15l-43.95-16.37,12.73,34.55,31.22,15.15v-33.34Zm.3,38.8l-31.52-15.76c-5.86,10.51-8.79,20.41-8.79,29.7,0,13.74,5.86,26.47,17.58,38.19l22.73-19.4v-32.74Z"/><path d="M649.52,310.53c-12.73-8.69-19.1-19.4-19.1-32.13l-43.34,30.92c-12.73-8.08-19.1-19.8-19.1-35.16v-80.02l-5.46-5.15-6.97,4.24-3.03-3.33,29.1-22.43,23.03,17.88-9.09,7.27v80.62c0,5.86,3.64,10.71,10.91,14.55l24.55-17.58v-76.08l-7.27-9.09,21.52-17.88,22.43,17.88-8.79,7.58v86.38c0,3.24,3.03,6.47,9.09,9.7l5.46-3.64,3.03,3.03-26.98,22.43Z"/><path d="M767.43,321.44c-13.74,9.09-31.12,15.66-52.13,19.7l-.91-1.82c9.9-3.84,17.93-7.23,24.1-10.15,6.16-2.93,10.66-5.41,13.49-7.43,10.71-7.88,16.06-19.1,16.06-33.65v-84.87c-1.21-5.46-5.05-10.2-11.52-14.25l-23.94,17.88v74.87l7.88,8.79-23.04,20.01-22.73-18.49,8.79-10.3v-94.87h-14.85v-14.85h15.46v-17.88c0-13.53-3.64-23.64-10.91-30.31l.61-.61c7.47,2.83,13.74,6.17,18.79,10l4.55-.3c8.89-10.1,18.59-15.16,29.1-15.16-8.69,7.48-13.03,16.67-13.03,27.58v53.65l42.43-31.22c13.34,8.9,20,20.72,20,35.46v73.96c0,17.78-9.4,32.53-28.19,44.25Z"/><path d="M870.18,295.98c-6.06,4.45-12.12,8.89-18.19,13.34-14.55-10.1-28.49-16.57-41.83-19.4,5.46-4.85,8.18-12.02,8.18-21.52v-77.29c6.87-2.83,13.38-6.26,19.55-10.3,6.16-4.04,12.07-8.59,17.73-13.64l30.61,19.1-13.03,18.49-27.28-15.46v86.08l26.67,13.34,13.03-9.7,3.03,3.34c-6.27,4.65-12.43,9.2-18.49,13.64Z"/><path d="M984.75,309.62c-12.93-6.87-19.4-17.78-19.4-32.73l-41.22,33.04h-1.52c-14.35-13.34-21.52-26.27-21.52-38.8,0-18.59,10-36.87,30.01-54.86l-14.55-37.89,3.94,.3c11.31,1.01,21.72-2.93,31.22-11.82l43.04,14.25,8.49-6.67,.61,1.21c-4.85,7.48-8.29,15.26-10.31,23.34v79.41c1.41,5.05,4.24,8.18,8.49,9.4l5.46-2.73,3.34,2.73-26.07,21.82Zm-19.4-112.15l-43.95-16.37,12.73,34.55,31.22,15.15v-33.34Zm.3,38.8l-31.52-15.76c-5.86,10.51-8.79,20.41-8.79,29.7,0,13.74,5.86,26.47,17.58,38.19l22.73-19.4v-32.74Z"/><path d="M1064.77,309.62c-9.5-8.28-23.85-15.96-43.04-23.03,5.25-5.86,7.88-13.13,7.88-21.82v-120.94c0-5.86-3.33-12.32-10-19.4,7.47,1.82,14.14,5.05,20,9.7l3.34-.3c9.29-8.69,19.7-13.84,31.22-15.46-9.9,7.27-14.85,16.47-14.85,27.58v127.61l22.13,13.94,7.27-5.46,3.64,3.94-27.58,23.64Z"/><path d="M1145.69,309.62c-9.5-8.28-23.85-15.96-43.04-23.03,5.25-5.86,7.88-13.13,7.88-21.82v-120.94c0-5.86-3.33-12.32-10-19.4,7.47,1.82,14.14,5.05,20,9.7l3.34-.3c9.29-8.69,19.7-13.84,31.22-15.46-9.9,7.27-14.85,16.47-14.85,27.58v127.61l22.13,13.94,7.27-5.46,3.64,3.94-27.58,23.64Z"/><path d="M1209.65,310.23c-13.74-7.27-20.11-17.48-19.1-30.61l.3-5.46v-79.11l-8.79-9.4,22.43-18.49,23.34,19.4-7.58,8.49v83.96c1.01,4.05,3.84,7.28,8.49,9.7l5.46-3.64,3.03,2.73-27.58,22.43Zm-6.06-156.7h-3.94l7.27-30.92h22.43l-25.76,30.92Z"/></g><path d="M282.18,280.96c-3.44,1.63-7.25,3.38-11.43,5.23-4.19,1.85-8.46,3.45-12.82,4.79-4.37,1.34-8.76,2.23-13.17,2.66-4.42,.43-8.58,.03-12.48-1.18-1.58-.49-10.73-3.9-12.61-2.92l-9.24-2.88c-11.51-3.59-22.07-9.63-31.7-18.16-9.63-8.52-16.63-18.42-21-29.7,.32-1.03,.82-1.55,1.5-1.56,.68-.01,1.43,.11,2.25,.36l1.69-4.88c-4.07-1.04-7.43-3.1-10.08-6.18-3.56-4.49-5.79-10.37-6.68-17.63-.9-7.26-1.06-14.87-.5-22.81,.56-7.94,1.67-15.65,3.32-23.14,1.66-7.48,3.28-13.79,4.89-18.93,6.21-19.92,16.17-35.98,29.88-48.16,13.71-12.18,30.85-19.8,51.41-22.86,.62,.19,1.02-.02,1.21-.64,.32-1.03-.34-1.8-1.98-2.31l-2.16-.67c-6.37-1.99-14.24-2.41-23.61-1.27-9.37,1.14-18.79,3.16-28.26,6.07-9.48,2.91-18.39,6.39-26.75,10.43-8.36,4.05-14.82,7.95-19.37,11.71-9.44,7.88-17.06,16.78-22.85,26.69-5.79,9.92-10.48,20.63-14.07,32.13-4.16,13.36-6.09,26.22-5.77,38.6,.31,12.38,1.69,25.49,4.14,39.32l-.29,.93c-.45,1.44-2.12,2.84-5.02,4.18-2.9,1.35-4.91,2.75-6.04,4.2-5.16,4.26-9.24,8.84-12.24,13.77-3,4.93-5.52,10.68-7.57,17.25-.25,.8-.48,1.6-.69,2.4,1.45-.63,3.27-.49,4.56,.41,.34-1.83,.8-3.68,1.38-5.57,.77-2.47,2.1-5.48,4.01-9.06,1.9-3.57,4.15-6.99,6.74-10.24,2.59-3.25,5.21-5.87,7.86-7.86,2.65-1.99,5.1-2.64,7.36-1.93l3.7,1.15c4.92,8.07,9.71,15.48,14.37,22.23,4.66,6.75,9.76,12.79,15.31,18.13,5.55,5.34,11.85,10.06,18.91,14.18,7.05,4.12,15.41,7.68,25.07,10.68,15.41,4.8,31.03,6.57,46.86,5.3,15.83-1.26,31.02-6.06,45.56-14.37,2.62-1.89,6.23-4.26,10.83-7.1,4.6-2.84,7.48-6.12,8.64-9.82l-3.08-.96Z"/><line x1="180.69" y1="259.48" x2="182.23" y2="259.96"/><path class="cls-1" d="M263.41,314.75c-19.07-14.14-41.91-19.45-64.63-13.91-16.3,3.97-32.27,9.03-48.82,12.04-21.86,3.98-43.36,1.68-62.96-7.64-26.59-12.64-33.03-36.72-15.36-57.32,16.13-18.81,40.25-26.37,67.02-28.74,12.18-1.08,24.69,.57,37.04,.37,8.41-.13,17.2-.26,25.11-2.25,13.04-3.29,16.24-13.61,8.13-22.43-.66-.71-1.24-1.52-2.06-2.08-14.35-9.76-24.99-21.25-25.72-37.93-2.52,1.47-3.92,2.28-6.35,3.7-1.22-11.44,4.63-20.31,12.42-30.53-4.94,1.59-7.55,2.42-10.15,3.26,6.77-10.49,18.74-15.63,33.68-20.7-6.44-1.76-10.52-2.88-14.6-4,.13-.83,.25-1.66,.38-2.49,12.01,.54,24.02,1.08,36.16,1.63-7.82-8.36-16.01-17.13-24.2-25.9l1.73-.98c13.66,8.15,27.32,16.31,40.97,24.46-1.96-10.25-11.54-18.75-6.01-28.2,7.15,8.26,14.66,16.73,21.89,25.35,3.53,4.21,6.44,8.76,9.86,13.04,2.21,2.76,5.1,5.17,7.22,7.96,2.72,3.58,4.6,7.59,7.51,11.05,3.92,4.66,7.69,9.74,12.95,13.25,8.9,5.92,10.85,9.49,6.46,18.35-.6,1.22-1.43,2.37-1.94,3.19-3.36,.16-6.21,.44-9.05,.4-7.68-.12-13.98-.46-20.42-6.31-6.41-5.82-17.42-8.69-26.94-11.81-7.71-2.53-16.06-3.69-19-11.1-10.92,.3-16.49,9.82-10.95,18.57,4.13,6.51,10.94,12.08,17.39,17.41,6.31,5.22,14.04,9.31,20.52,14.42,15.63,12.33,19.95,27.5,13.96,44.12-5.95,16.49-26.85,15.13-40.85,30.71-16.81,18.73-36.72-4.79-36.72-4.79l-8,.84s-30.65-5.04-46.02-5.43c-8.71-.22-18.61,2.64-26.17,6.45-14.75,7.42-14.13,20.97,.01,29.1,9.9,5.69,21.2,7.82,32.92,6.49,17.94-2.03,35.68-5.23,53.59-7.47,16.45-2.06,32.58-.95,46.64,7.07,5.37,3.07,13.06,9.4,17.81,13.18,3.58,3.9,5.25,7.54,4.32,8.58-.91,1.02-4.61-.16-8.74-3.01Zm1.13-190.1c4.98,5.95,6.99,12.41,17.4,10.88-2.09-6.82-8.53-8.64-17.4-10.88Z"/><path class="cls-1" d="M195.34,256.31s-1.77,22.53,3.46,26.3c5.23,3.76,38.59,16.39,42.52,15.93,0,0-12.02-14.33-16.06-14.72-4.04-.38-8.88-13.07-8.88-13.07l-21.04-14.44Z"/><path class="cls-1" d="M218.19,240.86s21.91,48.89,29.07,52.67c7.16,3.79,27.45-9.3,32.55-10.38,0,0-7.69-5.45-24.53-4.26-7.56,.53-15.27-20.81-15.27-20.81l-21.82-17.22Z"/><path class="cls-1" d="M121.44,220.56c-3.79-39.27-43.87-48.4-83.77-23.05,1.43-3.18,2.17-5.08,3.12-6.87,2.46-4.63,5.31-9.07,7.47-13.83,14.34-31.58-3.57-64.02-38.04-69.14-2.79-.41-5.56-1.01-10.23-1.87,19.97-14.11,38.29-28.16,38.7-53.47C39.11,27.08,21.98,12.83,.26,0,28.5,.33,52.68,6.9,76.05,17c38.63,16.7,66.25,45.93,89.83,79.59,1.15,1.65,.87,5.78-.42,7.44-19,24.4-14.44,55.84,12.2,77.25,12.25,9.85,24.36,19.91,36.06,30.4,2.55,2.29,3.04,6.86,4.48,10.38-4.23,.9-8.58,2.88-12.65,2.4-4.12-.48-8.06-3.19-11.89-5.26-22.43-12.16-44.86-13.58-67.4-.36-1,.59-2.04,1.13-3.11,1.57-.5,.2-1.12,.11-1.68,.15Z"/></svg>